<svg xmlns="http://www.w3.org/2000/svg" width="64" height="64" viewBox="0 0 64 64"><path fill="#a83896" d="M32 6L32 19L19 19ZM45 19L32 19L32 6ZM32 58L32 45L45 45ZM19 45L32 45L32 58ZM19 19L19 32L6 32ZM58 32L45 32L45 19ZM45 45L45 32L58 32ZM6 32L19 32L19 45Z"/><path fill="#d175c2" d="M8.2 12.5a4.3,4.3 0 1,1 8.7,0a4.3,4.3 0 1,1 -8.7,0M47.2 12.5a4.3,4.3 0 1,1 8.7,0a4.3,4.3 0 1,1 -8.7,0M47.2 51.5a4.3,4.3 0 1,1 8.7,0a4.3,4.3 0 1,1 -8.7,0M8.2 51.5a4.3,4.3 0 1,1 8.7,0a4.3,4.3 0 1,1 -8.7,0M19 19L32 19L32 32L19 32ZM23.7 27.1a3.4,3.4 0 1,0 6.8,0a3.4,3.4 0 1,0 -6.8,0M45 19L45 32L32 32L32 19ZM33.6 27.1a3.4,3.4 0 1,0 6.8,0a3.4,3.4 0 1,0 -6.8,0M45 45L32 45L32 32L45 32ZM33.6 36.9a3.4,3.4 0 1,0 6.8,0a3.4,3.4 0 1,0 -6.8,0M19 45L19 32L32 32L32 45ZM23.7 36.9a3.4,3.4 0 1,0 6.8,0a3.4,3.4 0 1,0 -6.8,0"/></svg>