<?xml version="1.0" encoding="utf-8"?>
<!-- Generator: Adobe Illustrator 26.0.1, SVG Export Plug-In . SVG Version: 6.00 Build 0)  -->
<svg version="1.1" id="Layer_1" xmlns="http://www.w3.org/2000/svg" xmlns:xlink="http://www.w3.org/1999/xlink" x="0px" y="0px"
	 viewBox="0 0 576 150" style="enable-background:new 0 0 576 150;" xml:space="preserve">
<style type="text/css">
	.st0{fill:#6E49E8;}
</style>
<g>
	<g>
		<path class="st0" d="M55.68,104.42V40.59H79.9v63.82H55.68z M95.95,104.42V82c0-2.24,0-4.22,0-5.92c0-1.7,0-3.11,0-4.24
			c0-1.64-0.08-3.2-0.24-4.69c-0.16-1.48-0.49-2.82-0.99-4.03c-0.5-1.2-1.25-2.14-2.25-2.82c-1-0.68-2.34-1.02-4.03-1.02
			c-1.4,0-2.63,0.33-3.7,0.99c-1.06,0.66-1.95,1.59-2.67,2.79c-0.72,1.2-1.26,2.65-1.62,4.36c-0.36,1.7-0.54,3.58-0.54,5.62
			l-4.63-5.41c0-5.85,0.96-10.89,2.88-15.11c1.92-4.23,4.7-7.49,8.32-9.8c3.63-2.3,7.96-3.46,13.01-3.46
			c5.61,0,9.89,1.22,12.83,3.67c2.94,2.44,4.96,5.64,6.04,9.59c1.08,3.95,1.62,8.2,1.62,12.77c0,1.8,0,4.31,0,7.51
			c0,3.21,0,7.13,0,11.78v19.83H95.95z M135.91,104.42V82.12c0-2.24,0-4.24,0-5.98c0-1.74,0-3.18,0-4.3c0-1.88-0.1-3.58-0.3-5.11
			c-0.2-1.52-0.56-2.84-1.08-3.97c-0.52-1.12-1.27-1.98-2.25-2.58c-0.98-0.6-2.25-0.9-3.82-0.9c-1.4,0-2.63,0.33-3.7,0.99
			c-1.06,0.66-1.94,1.59-2.64,2.79c-0.7,1.2-1.23,2.65-1.59,4.36c-0.36,1.7-0.54,3.58-0.54,5.62l-4.63-5.41
			c0-5.85,0.96-10.89,2.88-15.11c1.92-4.23,4.69-7.49,8.29-9.8c3.61-2.3,7.93-3.46,12.98-3.46c5.61,0,9.9,1.22,12.86,3.67
			c2.96,2.44,5,5.64,6.1,9.59c1.1,3.95,1.65,8.2,1.65,12.77c0,1.88,0,4.37,0,7.45c0,3.09,0,6.97,0,11.66v20.01H135.91z"/>
		<path class="st0" d="M177.25,132.48c-2.28,0-4.3-0.07-6.04-0.21c-1.74-0.14-2.83-0.29-3.28-0.45v-17.55
			c0.52,0.24,1.46,0.42,2.82,0.54c1.36,0.12,2.86,0.18,4.51,0.18c1.6,0,3.12-0.3,4.57-0.9c1.44-0.6,2.71-1.47,3.82-2.61
			c1.1-1.14,1.93-2.55,2.49-4.24l0.54-1.62l-22-65.02h25.24l11.3,50.6h-2.64l10.76-50.6h24.88l-20.91,65.44
			c-1.88,5.85-4.21,10.74-6.97,14.66c-2.76,3.93-6.44,6.87-11.03,8.83C190.73,131.5,184.71,132.48,177.25,132.48z"/>
		<path class="st0" d="M240.53,130.68V40.59h24.28v90.08H240.53z M283.68,105.98c-5.09,0-9.71-1.43-13.85-4.3
			c-4.15-2.86-7.44-6.71-9.89-11.54c-2.44-4.83-3.67-10.19-3.67-16.08c0-0.2,0-0.4,0-0.6c0-0.2,0-0.4,0-0.6l8.53-0.18
			c0,0.12,0,0.25,0,0.39c0,0.14,0,0.27,0,0.39c0,2.64,0.59,4.87,1.77,6.67c1.18,1.8,2.68,3.16,4.51,4.06
			c1.82,0.9,3.7,1.35,5.62,1.35c3.04,0,5.83-1.06,8.35-3.18c2.52-2.12,3.79-5.55,3.79-10.28c0-4.73-1.25-8.1-3.76-10.13
			c-2.5-2.02-5.3-3.04-8.38-3.04c-1.88,0-3.74,0.43-5.56,1.29c-1.82,0.86-3.33,2.15-4.54,3.88c-1.2,1.72-1.8,3.93-1.8,6.61
			l-8.53-0.6c0-5.93,1.22-11.21,3.67-15.83c2.44-4.63,5.74-8.28,9.89-10.97c4.15-2.68,8.76-4.03,13.85-4.03
			c5.17,0,10.04,1.26,14.63,3.79c4.59,2.52,8.32,6.23,11.21,11.12c2.88,4.89,4.33,10.86,4.33,17.91c0,7.45-1.4,13.69-4.21,18.72
			c-2.8,5.03-6.49,8.81-11.06,11.36C294.02,104.71,289.05,105.98,283.68,105.98z"/>
		<path class="st0" d="M343.78,105.86c-4.57,0-8.65-0.73-12.26-2.19s-6.45-3.58-8.53-6.37c-2.08-2.78-3.12-6.18-3.12-10.19
			c0-4.73,1.35-8.53,4.06-11.42c2.71-2.88,6.17-5.07,10.4-6.55c4.23-1.48,8.6-2.42,13.13-2.82c6.45-0.6,10.8-1.12,13.04-1.56
			c2.24-0.44,3.37-1.22,3.37-2.34v-0.06c0-1.48-0.89-2.75-2.67-3.82c-1.78-1.06-4.16-1.59-7.12-1.59c-3.21,0-5.59,0.59-7.15,1.77
			c-1.56,1.18-2.34,2.9-2.34,5.14H320.7c0-5.37,1.5-9.88,4.51-13.52c3-3.65,7.04-6.4,12.11-8.26c5.07-1.86,10.71-2.79,16.92-2.79
			c5.89,0,11.41,0.88,16.56,2.64c5.15,1.76,9.32,4.46,12.53,8.08c3.21,3.63,4.81,8.26,4.81,13.91c0,0.84,0,1.68,0,2.52
			s0,1.68,0,2.52v19.77c0,1.76,0.04,3.47,0.12,5.11c0.08,1.64,0.32,3.17,0.72,4.57c0.44,1.48,1.02,2.75,1.74,3.82
			c0.72,1.06,1.3,1.79,1.74,2.19h-23.68c-0.36-0.36-0.88-1.02-1.56-1.98c-0.68-0.96-1.24-2.06-1.68-3.3c-0.6-1.8-1.03-3.5-1.29-5.08
			c-0.26-1.58-0.39-3.52-0.39-5.8l5.29,3.67c-1.08,2.92-2.91,5.43-5.5,7.51c-2.58,2.08-5.61,3.68-9.08,4.78
			C351.1,105.31,347.5,105.86,343.78,105.86z M350.99,88.67c2.08,0,4.14-0.46,6.16-1.38c2.02-0.92,3.71-2.45,5.08-4.6
			c1.36-2.14,2.04-5.06,2.04-8.74v-2.28l6.19,4.99c-2.64,0.92-5.59,1.69-8.83,2.31s-6.35,1.09-9.31,1.41
			c-2.76,0.28-4.82,0.73-6.16,1.35c-1.34,0.62-2.01,1.61-2.01,2.97s0.6,2.36,1.8,3S348.83,88.67,350.99,88.67z"/>
		<path class="st0" d="M427.49,105.98c-3.77,0-7.49-0.45-11.18-1.35c-3.69-0.9-7.04-2.26-10.07-4.09c-3.03-1.82-5.45-4.12-7.27-6.88
			c-1.82-2.76-2.73-6.01-2.73-9.74c0-0.08,0-0.18,0-0.3s0-0.22,0-0.3h23.98c0,0.08,0,0.18,0,0.3s0,0.22,0,0.3
			c0,1.68,0.72,2.86,2.16,3.54c1.44,0.68,3.38,1.02,5.83,1.02c0.88,0,1.9-0.11,3.07-0.33c1.16-0.22,2.17-0.6,3.03-1.14
			s1.29-1.25,1.29-2.13c0-1.32-0.91-2.25-2.73-2.79s-5-1.17-9.52-1.89c-2.73-0.44-5.61-1.09-8.65-1.95
			c-3.04-0.86-5.91-2.04-8.59-3.55c-2.68-1.5-4.87-3.42-6.55-5.74c-1.68-2.32-2.52-5.19-2.52-8.59c0-4.65,1.41-8.53,4.24-11.66
			c2.82-3.12,6.57-5.48,11.24-7.06c4.67-1.58,9.77-2.37,15.29-2.37c5.25,0,10.18,0.89,14.78,2.67c4.61,1.78,8.35,4.32,11.24,7.6
			c2.88,3.29,4.33,7.17,4.33,11.66c0,0.08,0,0.18,0,0.3c0,0.12,0,0.22,0,0.3H434.4c0-0.08,0-0.18,0-0.3c0-0.12,0-0.22,0-0.3
			c0-1.12-0.35-2.01-1.05-2.67c-0.7-0.66-1.57-1.15-2.61-1.47c-1.04-0.32-2.08-0.48-3.12-0.48c-0.8,0-1.75,0.09-2.85,0.27
			c-1.1,0.18-2.05,0.51-2.85,0.99c-0.8,0.48-1.2,1.18-1.2,2.1c0,0.8,0.51,1.48,1.53,2.04c1.02,0.56,2.42,1.03,4.21,1.41
			c1.78,0.38,3.78,0.73,5.98,1.05c2.28,0.32,4.93,0.84,7.93,1.56s5.93,1.79,8.77,3.22c2.84,1.42,5.2,3.35,7.06,5.77
			c1.86,2.42,2.79,5.52,2.79,9.28c0,4.05-0.93,7.45-2.79,10.22c-1.86,2.76-4.35,4.99-7.45,6.67c-3.11,1.68-6.5,2.91-10.19,3.67
			C434.86,105.6,431.17,105.98,427.49,105.98z"/>
		<path class="st0" d="M495.63,105.98c-3.77,0-7.49-0.45-11.18-1.35c-3.69-0.9-7.04-2.26-10.07-4.09c-3.03-1.82-5.45-4.12-7.27-6.88
			c-1.82-2.76-2.73-6.01-2.73-9.74c0-0.08,0-0.18,0-0.3s0-0.22,0-0.3h23.98c0,0.08,0,0.18,0,0.3s0,0.22,0,0.3
			c0,1.68,0.72,2.86,2.16,3.54c1.44,0.68,3.38,1.02,5.83,1.02c0.88,0,1.9-0.11,3.07-0.33c1.16-0.22,2.17-0.6,3.03-1.14
			s1.29-1.25,1.29-2.13c0-1.32-0.91-2.25-2.73-2.79s-5-1.17-9.52-1.89c-2.73-0.44-5.61-1.09-8.65-1.95
			c-3.04-0.86-5.91-2.04-8.59-3.55c-2.68-1.5-4.87-3.42-6.55-5.74c-1.68-2.32-2.52-5.19-2.52-8.59c0-4.65,1.41-8.53,4.24-11.66
			c2.82-3.12,6.57-5.48,11.24-7.06c4.67-1.58,9.77-2.37,15.29-2.37c5.25,0,10.18,0.89,14.78,2.67c4.61,1.78,8.35,4.32,11.24,7.6
			c2.88,3.29,4.33,7.17,4.33,11.66c0,0.08,0,0.18,0,0.3c0,0.12,0,0.22,0,0.3h-23.74c0-0.08,0-0.18,0-0.3c0-0.12,0-0.22,0-0.3
			c0-1.12-0.35-2.01-1.05-2.67c-0.7-0.66-1.57-1.15-2.61-1.47c-1.04-0.32-2.08-0.48-3.12-0.48c-0.8,0-1.75,0.09-2.85,0.27
			c-1.1,0.18-2.05,0.51-2.85,0.99c-0.8,0.48-1.2,1.18-1.2,2.1c0,0.8,0.51,1.48,1.53,2.04c1.02,0.56,2.42,1.03,4.21,1.41
			c1.78,0.38,3.78,0.73,5.98,1.05c2.28,0.32,4.93,0.84,7.93,1.56s5.93,1.79,8.77,3.22c2.84,1.42,5.2,3.35,7.06,5.77
			c1.86,2.42,2.79,5.52,2.79,9.28c0,4.05-0.93,7.45-2.79,10.22c-1.86,2.76-4.35,4.99-7.45,6.67c-3.11,1.68-6.5,2.91-10.19,3.67
			C503.01,105.6,499.32,105.98,495.63,105.98z"/>
	</g>
</g>
</svg>
